<svg width="355" height="176" viewBox="0 0 355 176" fill="none" xmlns="http://www.w3.org/2000/svg">
<mask id="path-1-outside-1_160_236" maskUnits="userSpaceOnUse" x="9.67578" y="54.216" width="345" height="87" fill="black">
<rect fill="white" x="9.67578" y="54.216" width="345" height="87"/>
<path d="M40.6193 138.216H13.0827V87.7607H81.6677V105.89H40.6193V138.216ZM13.0827 57.1455H110.915V77.4986H13.0827V57.1455ZM205.405 83.998V77.4986H156.489V117.863H205.576V107.259H233.112V138.216H128.952V57.1455H232.941V83.998H205.405ZM284.551 57.1455V117.863H351.255V138.216H257.015V57.1455H284.551Z"/>
</mask>
<path d="M40.6193 138.216V140.659H43.0627V138.216H40.6193ZM13.0827 138.216H10.6393V140.659H13.0827V138.216ZM13.0827 87.7607V85.3174H10.6393V87.7607H13.0827ZM81.6677 87.7607H84.1111V85.3174H81.6677V87.7607ZM81.6677 105.89V108.334H84.1111V105.89H81.6677ZM40.6193 105.89V103.447H38.176V105.89H40.6193ZM13.0827 57.1455V54.7021H10.6393V57.1455H13.0827ZM110.915 57.1455H113.358V54.7021H110.915V57.1455ZM110.915 77.4986V79.942H113.358V77.4986H110.915ZM13.0827 77.4986H10.6393V79.942H13.0827V77.4986ZM40.6193 138.216V135.773H13.0827V138.216V140.659H40.6193V138.216ZM13.0827 138.216H15.5261V87.7607H13.0827H10.6393V138.216H13.0827ZM13.0827 87.7607V90.2041H81.6677V87.7607V85.3174H13.0827V87.7607ZM81.6677 87.7607H79.2243V105.89H81.6677H84.1111V87.7607H81.6677ZM81.6677 105.89V103.447H40.6193V105.89V108.334H81.6677V105.89ZM40.6193 105.89H38.176V138.216H40.6193H43.0627V105.89H40.6193ZM13.0827 57.1455V59.5888H110.915V57.1455V54.7021H13.0827V57.1455ZM110.915 57.1455H108.471V77.4986H110.915H113.358V57.1455H110.915ZM110.915 77.4986V75.0553H13.0827V77.4986V79.942H110.915V77.4986ZM13.0827 77.4986H15.5261V57.1455H13.0827H10.6393V77.4986H13.0827ZM205.405 83.998H202.961V86.4413H205.405V83.998ZM205.405 77.4986H207.848V75.0553H205.405V77.4986ZM156.489 77.4986V75.0553H154.045V77.4986H156.489ZM156.489 117.863H154.045V120.306H156.489V117.863ZM205.576 117.863V120.306H208.019V117.863H205.576ZM205.576 107.259V104.815H203.132V107.259H205.576ZM233.112 107.259H235.556V104.815H233.112V107.259ZM233.112 138.216V140.659H235.556V138.216H233.112ZM128.952 138.216H126.509V140.659H128.952V138.216ZM128.952 57.1455V54.7021H126.509V57.1455H128.952ZM232.941 57.1455H235.385V54.7021H232.941V57.1455ZM232.941 83.998V86.4413H235.385V83.998H232.941ZM205.405 83.998H207.848V77.4986H205.405H202.961V83.998H205.405ZM205.405 77.4986V75.0553H156.489V77.4986V79.942H205.405V77.4986ZM156.489 77.4986H154.045V117.863H156.489H158.932V77.4986H156.489ZM156.489 117.863V120.306H205.576V117.863V115.42H156.489V117.863ZM205.576 117.863H208.019V107.259H205.576H203.132V117.863H205.576ZM205.576 107.259V109.702H233.112V107.259V104.815H205.576V107.259ZM233.112 107.259H230.669V138.216H233.112H235.556V107.259H233.112ZM233.112 138.216V135.773H128.952V138.216V140.659H233.112V138.216ZM128.952 138.216H131.396V57.1455H128.952H126.509V138.216H128.952ZM128.952 57.1455V59.5888H232.941V57.1455V54.7021H128.952V57.1455ZM232.941 57.1455H230.498V83.998H232.941H235.385V57.1455H232.941ZM232.941 83.998V81.5546H205.405V83.998V86.4413H232.941V83.998ZM284.551 57.1455H286.995V54.7021H284.551V57.1455ZM284.551 117.863H282.108V120.306H284.551V117.863ZM351.255 117.863H353.698V115.42H351.255V117.863ZM351.255 138.216V140.659H353.698V138.216H351.255ZM257.015 138.216H254.571V140.659H257.015V138.216ZM257.015 57.1455V54.7021H254.571V57.1455H257.015ZM284.551 57.1455H282.108V117.863H284.551H286.995V57.1455H284.551ZM284.551 117.863V120.306H351.255V117.863V115.42H284.551V117.863ZM351.255 117.863H348.811V138.216H351.255H353.698V117.863H351.255ZM351.255 138.216V135.773H257.015V138.216V140.659H351.255V138.216ZM257.015 138.216H259.458V57.1455H257.015H254.571V138.216H257.015ZM257.015 57.1455V59.5888H284.551V57.1455V54.7021H257.015V57.1455Z" fill="#977DFF" mask="url(#path-1-outside-1_160_236)"/>
<g filter="url(#filter0_g_160_236)">
<path d="M36.9435 135H9.40692V84.5447H77.9919V102.674H36.9435V135ZM9.40692 53.9295H107.239V74.2826H9.40692V53.9295ZM201.729 80.7819V74.2826H152.813V114.647H201.9V104.043H229.437V135H125.276V53.9295H229.266V80.7819H201.729ZM280.875 53.9295V114.647H347.579V135H253.339V53.9295H280.875Z" fill="#F2F2F2"/>
</g>
<path d="M36.9435 135H9.40692V84.5447H77.9919V102.674H36.9435V135ZM9.40692 53.9295H107.239V74.2826H9.40692V53.9295ZM201.729 80.7819V74.2826H152.813V114.647H201.9V104.043H229.437V135H125.276V53.9295H229.266V80.7819H201.729ZM280.875 53.9295V114.647H347.579V135H253.339V53.9295H280.875Z" fill="#F2F2F2"/>
<defs>
<filter id="filter0_g_160_236" x="2.05603" y="46.5785" width="352.874" height="95.7724" filterUnits="userSpaceOnUse" color-interpolation-filters="sRGB">
<feFlood flood-opacity="0" result="BackgroundImageFix"/>
<feBlend mode="normal" in="SourceGraphic" in2="BackgroundImageFix" result="shape"/>
<feTurbulence type="fractalNoise" baseFrequency="0.99900001287460327 0.99900001287460327" numOctaves="3" seed="9499" />
<feDisplacementMap in="shape" scale="14.701898574829102" xChannelSelector="R" yChannelSelector="G" result="displacedImage" width="100%" height="100%" />
<feMerge result="effect1_texture_160_236">
<feMergeNode in="displacedImage"/>
</feMerge>
</filter>
</defs>
</svg>
