<svg width="515" height="65" viewBox="0 0 515 65" fill="none" xmlns="http://www.w3.org/2000/svg">
<g clip-path="url(#clip0_554_16)">
<path d="M290.339 62.7519H258.291V1.50781H286.437C299.19 1.50781 306.088 9.44577 306.088 18.8562C306.088 23.0622 303.963 27.4035 300.705 30.6531C305.521 33.1665 309.642 38.8957 309.642 44.8788C309.642 55.3387 301.484 62.7519 290.339 62.7519ZM273.422 50.4388H288.257C291.946 50.4388 294.333 47.7054 294.333 44.4134V44.2865C294.333 40.9437 291.904 38.2611 288.257 38.2611H273.422V50.4388ZM273.422 25.931H284.482C288.426 25.931 290.812 23.1976 290.812 19.9056C290.812 16.5628 288.604 13.8802 284.482 13.8802H273.422C273.422 13.8717 273.422 25.931 273.422 25.931Z" fill="#2DBE64"/>
<path d="M120.023 62.7519L97.9862 31.4402L119.329 1.50781H101.549L84.5475 26.0579V1.50781H69.0609V62.7519H84.5475V37.6433L101.591 62.7519H120.023Z" fill="#2DBE64"/>
<path d="M398.257 1.50781V46.7914C398.257 48.8309 397.343 50.388 395.439 50.388C392.748 50.388 392.621 47.3076 392.621 45.2681H378.091C378.091 55.0678 383.727 64.2667 395.871 64.2667C406.458 64.2667 413.693 55.6772 413.693 45.0989V15.3019H434.638V62.7519H450.125V1.50781H398.257Z" fill="#2DBE64"/>
<path d="M189.594 1.50781L168.167 46.6983C164.223 55.2879 156.023 64.2667 142.102 64.2667C130.262 64.2667 119.117 57.065 117.12 41.2399H132.124C133.25 47.5699 137.76 50.388 142.796 50.388C147.086 50.388 149.997 47.8323 150.818 46.3513L125.27 1.50781H143.092L159.315 31.127L172.677 1.50781H189.594Z" fill="#2DBE64"/>
<path d="M41.5144 62.7519H0.318237V1.50781H37.6639C50.4171 1.50781 57.3141 9.44577 57.3141 18.8562C57.3141 23.0622 55.19 27.4035 51.9319 30.6531C56.7471 33.1665 60.8684 38.8957 60.8684 44.8788C60.86 55.3387 52.6681 62.7519 41.5144 62.7519ZM15.4494 50.4388H39.4749C43.1646 50.4388 45.551 47.7054 45.551 44.4134V44.2865C45.551 40.9437 43.1223 38.2611 39.4749 38.2611H15.4494V50.4388ZM15.4494 25.931H35.7005C39.6441 25.931 42.0306 23.1976 42.0306 19.9056C42.0306 16.5628 39.8218 13.8802 35.7005 13.8802H15.4494V25.931Z" fill="#2DBE64"/>
<path d="M234.005 39.7744C231.619 45.3682 226.499 49.3203 219.348 49.3203C209.286 49.3203 203.21 41.4669 203.21 32.1411C203.21 22.8153 209.286 14.9619 219.348 14.9619C226.507 14.9619 231.619 18.9563 234.005 24.5924H250.66C247.537 10.5868 235.782 0 219.348 0C200.045 0 187.207 14.5727 187.207 32.1411V32.1834C187.207 49.7942 200.045 64.3245 219.348 64.3245C235.782 64.3245 247.537 53.7885 250.66 39.7744H234.005Z" fill="#2DBE64"/>
<path d="M359.871 1.50781L334.06 36.907V1.50781H318.582V62.7519H332.673L358.526 27.4035V62.7519H374.013V1.50781H359.871Z" fill="#2DBE64"/>
<path d="M467.648 1.50781V42.8817C467.648 46.6983 465.481 49.0001 461.529 49.0001H456.976V62.7096H465.177C475.975 62.7096 483.134 55.8972 483.134 43.4487V15.2596H498.79V62.7096H514.277V1.50781H467.648Z" fill="#2DBE64"/>
</g>
<defs>
<clipPath id="clip0_554_16">
<rect width="514.596" height="64.3245" fill="white"/>
</clipPath>
</defs>
</svg>
