<?xml version="1.0" encoding="utf-8"?>
<svg version="1.1" xmlns="http://www.w3.org/2000/svg" viewBox="0 0 512.8 162.1">
<style type="text/css">.st0{fill:#FFFFFF}</style>
<g fill="#FFFFFF">
	<g>
		<path class="st0" d="M74,20.1C62.3,13.5,50.7,6.9,39,0.3c-1.8-1-4,0.3-4,2.3V20H0v39h35l0,0h39l0,0h46V20H74V20.1z"/>
		<path class="st0" d="M74,110.1V59.7v-0.6L35,81.6v28.5c0,28.7,23.3,52,52,52h33v-39H87C79.8,123.1,74,117.3,74,110.1z"/>
	</g>
	<path class="st0" d="M432.3,20.1c28.5-4.4,53.4,2.7,65.3,15.2c9.3,9.8,12.9,21.3,12.9,21.3c1.5,4.9,2.3,10.1,2.3,15.5v90h-39v-90c0-7.2-5.8-13-13-13h-29v103h-39V90.4l0,0V29.6l0,0v-9.5V0.3c13,0,26,0,39,0L432.3,20.1z"/>
	<path class="st0" d="M374.5,59.1v-39h-66.9c-21.4,0-38.7,17.7-39,39l0,0l0,0l0,0v64l0,0v1.6l0,0c0.8,20.8,18,37.4,39,37.4h66.9v-39h-66.7v-64C307.8,59.1,374.5,59.1,374.5,59.1z"/>
	<path class="st0" d="M254.5,59.1c-0.2-21.4-17.6-39-39-39h-66.9v39h30.9H214h1.6v16h-42c-21.5,0-39,17.4-39,39v9.1c0,21.5,17.4,39,39,39h26.2c1.1,0,6.6-0.1,11.1-4.6c4.6-4.5,4.7-10.2,4.7-11.2c1.7,5.3,3.3,10.5,5,15.8h34C254.6,127.8,254.5,93.5,254.5,59.1z M215.8,128.7h-31c-6.1,0-11-4.9-11-11s4.9-11,11-11h31V128.7z"/>
</g>
</svg>
